<?xml version="1.0" standalone="no"?>
<!DOCTYPE svg PUBLIC "-//W3C//DTD SVG 20010904//EN"
 "http://www.w3.org/TR/2001/REC-SVG-20010904/DTD/svg10.dtd">
<svg version="1.0" xmlns="http://www.w3.org/2000/svg"
 width="260.000000pt" height="260.000000pt" viewBox="0 0 260.000000 260.000000"
 preserveAspectRatio="xMidYMid meet">
<metadata>
Created by potrace 1.11, written by Peter Selinger 2001-2013
</metadata>
<g transform="translate(0.000000,260.000000) scale(0.100000,-0.100000)"
fill="#000000" stroke="none">
<path d="M1178 2585 c-3 -4 -21 -8 -40 -10 -18 -2 -33 -4 -33 -5 0 -1 -13 -3
-30 -5 -16 -2 -61 -13 -100 -25 -38 -11 -77 -22 -85 -24 -32 -8 -105 -40 -111
-48 -3 -5 -6 -535 -6 -1178 l0 -1168 37 -17 c20 -9 42 -17 50 -19 8 -2 23 -6
32 -10 9 -4 22 -8 30 -10 7 -1 18 -5 24 -8 10 -7 29 -12 89 -23 17 -3 41 -8
55 -11 56 -14 320 -25 320 -14 0 3 18 5 40 3 22 -1 40 1 40 5 0 4 15 7 33 7
17 -1 37 1 42 4 6 3 19 7 30 8 38 6 190 55 213 69 12 8 22 12 22 9 0 -8 63 27
72 40 4 6 8 7 8 3 0 -17 198 115 228 151 6 8 12 11 12 7 0 -10 137 129 171
174 13 18 35 45 47 61 13 16 20 29 15 29 -4 0 -3 4 2 8 16 11 68 95 68 109 0
7 4 13 8 13 10 0 73 160 98 250 18 67 30 129 34 184 2 23 -30 31 -52 13 -9 -7
-12 -8 -8 -1 8 14 -361 14 -382 0 -9 -6 -12 -5 -8 1 8 13 -122 12 -142 -1 -9
-6 -12 -5 -8 1 4 7 -51 11 -161 11 -216 2 -201 -1 -192 34 5 17 5 28 -1 28 -6
0 -6 7 -1 18 4 9 7 53 6 97 l-1 81 461 -1 c254 0 469 1 478 3 12 3 16 11 13
26 -3 11 -7 35 -9 51 -6 42 -15 83 -28 130 -7 22 -12 43 -14 48 -1 4 -2 8 -4
10 -1 1 -3 11 -5 22 -5 23 -9 32 -76 168 -29 59 -56 107 -60 107 -4 0 -12 12
-18 28 -6 15 -25 42 -41 59 -17 18 -30 34 -30 37 0 20 -237 236 -258 236 -6 0
-12 4 -14 8 -4 11 -131 87 -140 84 -5 -1 -8 2 -8 8 0 6 -3 9 -7 8 -5 -1 -18 3
-29 10 -12 6 -24 8 -28 5 -3 -3 -6 -1 -6 6 0 7 -4 9 -10 6 -5 -3 -10 -1 -10 4
0 6 -6 11 -14 11 -8 0 -27 5 -43 12 -15 6 -36 13 -45 14 -10 2 -23 5 -30 6 -7
2 -15 6 -18 10 -3 3 -21 9 -40 11 -19 3 -35 6 -35 7 0 1 -30 6 -81 13 -17 2
-36 7 -43 11 -6 4 -11 2 -11 -4 0 -7 -6 -8 -17 -2 -21 11 -203 10 -220 -1 -6
-4 -13 -2 -15 4 -2 5 -6 7 -10 4z"/>
<path d="M510 2315 c-8 -8 -58 -57 -111 -108 -52 -51 -115 -123 -139 -160 -24
-37 -49 -67 -54 -67 -5 0 -6 -3 -3 -7 4 -3 0 -15 -10 -25 -9 -10 -12 -18 -7
-18 5 0 4 -4 -1 -8 -13 -8 -65 -114 -65 -130 0 -7 -5 -12 -12 -12 -6 0 -8 -3
-5 -7 4 -3 2 -12 -4 -20 -6 -7 -8 -13 -4 -13 4 0 2 -7 -5 -15 -7 -8 -9 -15 -5
-15 4 0 2 -7 -5 -15 -6 -8 -9 -19 -5 -25 3 -5 1 -10 -6 -10 -7 0 -10 -3 -6 -6
3 -3 -1 -27 -8 -52 -13 -45 -27 -124 -29 -167 -1 -11 -5 -26 -9 -32 -5 -8 -4
-13 3 -13 7 0 8 -6 2 -17 -14 -31 5 -313 23 -343 5 -7 17 -68 18 -87 0 -7 4
-13 9 -13 4 0 7 -3 6 -7 -8 -30 80 -227 143 -321 16 -24 29 -45 29 -48 0 -3 6
-11 12 -19 7 -7 29 -32 48 -56 51 -63 148 -158 154 -151 3 3 6 1 6 -5 0 -6 16
-23 35 -37 l35 -27 -2 28 c-1 16 1 34 6 41 4 7 3 12 -3 12 -7 0 -7 8 -1 25 5
14 6 25 1 25 -11 0 -9 19 2 38 5 7 3 12 -3 12 -6 0 -8 5 -4 12 11 17 11 58 1
58 -4 0 -3 9 3 20 6 12 7 20 1 20 -10 0 -9 19 2 38 5 7 3 12 -3 12 -6 0 -8 5
-4 12 9 14 12 58 4 58 -3 0 -3 27 0 60 3 33 3 60 -1 60 -9 0 -6 20 4 38 5 7 3
12 -3 12 -6 0 -8 5 -4 12 9 14 12 58 4 58 -7 0 -4 106 4 119 4 6 2 11 -5 11
-8 0 -8 4 -1 13 7 8 7 18 2 27 -5 9 -5 19 2 27 7 9 7 13 -1 13 -7 0 -9 5 -6
11 9 14 12 139 3 139 -8 0 -5 21 5 38 5 7 3 12 -3 12 -6 0 -8 5 -4 12 9 14 12
58 4 58 -7 0 -4 106 4 119 4 6 2 11 -5 11 -8 0 -8 4 -1 13 7 8 7 18 2 27 -5 9
-5 19 2 27 7 9 7 13 -1 13 -7 0 -9 5 -6 11 9 14 12 139 3 139 -8 0 -5 21 5 38
5 7 3 12 -3 12 -6 0 -8 5 -4 12 9 14 12 58 4 58 -3 0 -3 27 0 60 3 33 3 60 -1
60 -9 0 -6 20 4 38 5 7 3 12 -3 12 -6 0 -8 5 -4 12 11 17 11 58 1 58 -4 0 -3
9 3 20 6 12 7 20 1 20 -10 0 -9 19 2 38 5 7 3 12 -3 12 -6 0 -8 5 -4 12 10 16
12 58 2 58 -4 0 -5 6 -2 14 3 8 2 22 -3 30 -8 14 -10 14 -23 1z"/>
</g>
</svg>
